<mxfile host="app.diagrams.net" modified="2024-05-03T17:29:19.354Z" agent="Mozilla/5.0 (Windows NT 10.0; Win64; x64) AppleWebKit/537.36 (KHTML, like Gecko) Chrome/124.0.0.0 Safari/537.36 Edg/124.0.0.0" etag="kRqmEFjyE_S9FHa-rdtl" version="24.3.1" type="google">
  <diagram name="PÃ¡gina-1" id="4NajoY78vStF8M3oIZgW">
    <mxGraphModel grid="1" page="1" gridSize="10" guides="1" tooltips="1" connect="1" arrows="1" fold="1" pageScale="1" pageWidth="827" pageHeight="1169" math="0" shadow="0">
      <root>
        <mxCell id="0" />
        <mxCell id="1" parent="0" />
        <mxCell id="VGTgTIE-4YaxB07B-bM7-4" value="" style="edgeStyle=orthogonalEdgeStyle;rounded=0;orthogonalLoop=1;jettySize=auto;html=1;" edge="1" parent="1" source="VGTgTIE-4YaxB07B-bM7-2" target="VGTgTIE-4YaxB07B-bM7-3">
          <mxGeometry relative="1" as="geometry" />
        </mxCell>
        <mxCell id="VGTgTIE-4YaxB07B-bM7-2" value="INICIO" style="ellipse;whiteSpace=wrap;html=1;" vertex="1" parent="1">
          <mxGeometry x="280" y="20" width="80" height="80" as="geometry" />
        </mxCell>
        <mxCell id="VGTgTIE-4YaxB07B-bM7-6" value="" style="edgeStyle=orthogonalEdgeStyle;rounded=0;orthogonalLoop=1;jettySize=auto;html=1;" edge="1" parent="1" source="VGTgTIE-4YaxB07B-bM7-3" target="VGTgTIE-4YaxB07B-bM7-5">
          <mxGeometry relative="1" as="geometry" />
        </mxCell>
        <mxCell id="VGTgTIE-4YaxB07B-bM7-3" value="INPUT&lt;div&gt;n, k&lt;/div&gt;" style="shape=parallelogram;perimeter=parallelogramPerimeter;whiteSpace=wrap;html=1;fixedSize=1;" vertex="1" parent="1">
          <mxGeometry x="260" y="130" width="120" height="60" as="geometry" />
        </mxCell>
        <mxCell id="VGTgTIE-4YaxB07B-bM7-9" value="" style="edgeStyle=orthogonalEdgeStyle;rounded=0;orthogonalLoop=1;jettySize=auto;html=1;" edge="1" parent="1" source="VGTgTIE-4YaxB07B-bM7-5" target="VGTgTIE-4YaxB07B-bM7-8">
          <mxGeometry relative="1" as="geometry" />
        </mxCell>
        <mxCell id="VGTgTIE-4YaxB07B-bM7-5" value="sum = 0&lt;div&gt;i = 1&lt;/div&gt;" style="whiteSpace=wrap;html=1;" vertex="1" parent="1">
          <mxGeometry x="260" y="230" width="120" height="60" as="geometry" />
        </mxCell>
        <mxCell id="VGTgTIE-4YaxB07B-bM7-11" value="" style="edgeStyle=orthogonalEdgeStyle;rounded=0;orthogonalLoop=1;jettySize=auto;html=1;" edge="1" parent="1" source="VGTgTIE-4YaxB07B-bM7-8" target="VGTgTIE-4YaxB07B-bM7-10">
          <mxGeometry relative="1" as="geometry" />
        </mxCell>
        <mxCell id="VGTgTIE-4YaxB07B-bM7-17" value="" style="edgeStyle=orthogonalEdgeStyle;rounded=0;orthogonalLoop=1;jettySize=auto;html=1;" edge="1" parent="1" source="VGTgTIE-4YaxB07B-bM7-8" target="VGTgTIE-4YaxB07B-bM7-16">
          <mxGeometry relative="1" as="geometry" />
        </mxCell>
        <mxCell id="VGTgTIE-4YaxB07B-bM7-8" value="n &amp;gt;= i" style="rhombus;whiteSpace=wrap;html=1;" vertex="1" parent="1">
          <mxGeometry x="280" y="320" width="80" height="80" as="geometry" />
        </mxCell>
        <mxCell id="VGTgTIE-4YaxB07B-bM7-14" value="" style="edgeStyle=orthogonalEdgeStyle;rounded=0;orthogonalLoop=1;jettySize=auto;html=1;" edge="1" parent="1" source="VGTgTIE-4YaxB07B-bM7-10" target="VGTgTIE-4YaxB07B-bM7-13">
          <mxGeometry relative="1" as="geometry" />
        </mxCell>
        <mxCell id="VGTgTIE-4YaxB07B-bM7-10" value="OUTPUT&lt;div&gt;sum&lt;/div&gt;" style="shape=parallelogram;perimeter=parallelogramPerimeter;whiteSpace=wrap;html=1;fixedSize=1;" vertex="1" parent="1">
          <mxGeometry x="400" y="330" width="120" height="60" as="geometry" />
        </mxCell>
        <mxCell id="VGTgTIE-4YaxB07B-bM7-12" value="NO" style="text;html=1;align=center;verticalAlign=middle;resizable=0;points=[];autosize=1;strokeColor=none;fillColor=none;" vertex="1" parent="1">
          <mxGeometry x="350" y="318" width="40" height="30" as="geometry" />
        </mxCell>
        <mxCell id="VGTgTIE-4YaxB07B-bM7-13" value="FIN" style="ellipse;whiteSpace=wrap;html=1;" vertex="1" parent="1">
          <mxGeometry x="540" y="320" width="80" height="80" as="geometry" />
        </mxCell>
        <mxCell id="VGTgTIE-4YaxB07B-bM7-15" value="SI" style="text;html=1;align=center;verticalAlign=middle;resizable=0;points=[];autosize=1;strokeColor=none;fillColor=none;" vertex="1" parent="1">
          <mxGeometry x="335" y="398" width="30" height="30" as="geometry" />
        </mxCell>
        <mxCell id="VGTgTIE-4YaxB07B-bM7-18" style="edgeStyle=orthogonalEdgeStyle;rounded=0;orthogonalLoop=1;jettySize=auto;html=1;entryX=0;entryY=0.5;entryDx=0;entryDy=0;" edge="1" parent="1" source="VGTgTIE-4YaxB07B-bM7-16" target="VGTgTIE-4YaxB07B-bM7-8">
          <mxGeometry relative="1" as="geometry">
            <Array as="points">
              <mxPoint x="220" y="480" />
              <mxPoint x="220" y="360" />
            </Array>
          </mxGeometry>
        </mxCell>
        <mxCell id="VGTgTIE-4YaxB07B-bM7-16" value="sum = sum + pow(i, k)" style="whiteSpace=wrap;html=1;" vertex="1" parent="1">
          <mxGeometry x="255" y="450" width="130" height="60" as="geometry" />
        </mxCell>
        <mxCell id="VGTgTIE-4YaxB07B-bM7-19" value="++i" style="whiteSpace=wrap;html=1;" vertex="1" parent="1">
          <mxGeometry x="190" y="400" width="60" height="40" as="geometry" />
        </mxCell>
      </root>
    </mxGraphModel>
  </diagram>
</mxfile>
